<?xml version="1.0" encoding="UTF-8" standalone="no"?>
<!-- Created with Inkscape (http://www.inkscape.org/) -->

<svg
   version="1.1"
   id="svg2"
   xml:space="preserve"
   width="666.66669"
   height="666.66669"
   viewBox="0 0 666.66669 666.66669"
   sodipodi:docname="contact_us.svg"
   inkscape:version="1.1.2 (b8e25be833, 2022-02-05)"
   xmlns:inkscape="http://www.inkscape.org/namespaces/inkscape"
   xmlns:sodipodi="http://sodipodi.sourceforge.net/DTD/sodipodi-0.dtd"
   xmlns="http://www.w3.org/2000/svg"
   xmlns:svg="http://www.w3.org/2000/svg"><defs
     id="defs6" /><sodipodi:namedview
     id="namedview4"
     pagecolor="#ffffff"
     bordercolor="#666666"
     borderopacity="1.0"
     inkscape:pageshadow="2"
     inkscape:pageopacity="0.0"
     inkscape:pagecheckerboard="0"
     showgrid="false"
     inkscape:zoom="0.85701339"
     inkscape:cx="233.952"
     inkscape:cy="435.81583"
     inkscape:window-width="1920"
     inkscape:window-height="1001"
     inkscape:window-x="-9"
     inkscape:window-y="-9"
     inkscape:window-maximized="1"
     inkscape:current-layer="g8" /><g
     id="g8"
     inkscape:groupmode="layer"
     inkscape:label="ink_ext_XXXXXX"
     transform="matrix(1.3333333,0,0,-1.3333333,0,666.66667)"><g
       id="g10"
       transform="scale(0.1)"><path
         d="m 4305.3,904.281 c 474.9,361.099 686.4,1362.399 -84.7,1853.399 -510.5,325 -828,139.6 -1402.3,354.6 -701.1,262.4 -805.6,1055.2 -1658.4,665.1 -451.798,-206.6 -764.998,-788.9 -820.095,-1450.7 -54,-648.1 175.699,-1092.8 645.097,-1397.098 C 2087.2,882.68 3191.7,891.18 4305.3,904.281"
         style="fill:#e4f6fd;fill-opacity:1;fill-rule:nonzero;stroke:none"
         id="path14" /><path
         d="m 2354.32,3752.4 c -71.73,-288 194.64,-573.1 475.26,-691.3 280.63,-118.3 602.43,-104.2 903.07,-47.8 129.72,24.3 263.06,58.5 363.84,141.2 100.78,82.7 159.2,226.3 103.97,342.3 -48.74,102.3 -167.39,154.7 -280.52,181.6 -113.12,26.9 -233.27,37.9 -334.05,94.5 -95.56,53.7 -163.35,142.6 -246.46,213 -153.56,129.9 -369.27,194.3 -568.91,153.2 -199.75,-41.1 -355.23,-141.9 -416.2,-386.7"
         style="fill:#e4f6fd;fill-opacity:1;fill-rule:nonzero;stroke:none"
         id="path16" /><path
         d="m 4005.76,2347.91 c -104.28,0 -188.83,84.54 -188.83,188.82 0,104.17 84.55,188.71 188.83,188.71 104.17,0 188.71,-84.54 188.71,-188.71 0,-104.28 -84.54,-188.82 -188.71,-188.82 z m 497.19,79.83 v 217.87 h -82.62 c -9.92,38.1 -25.04,74.02 -44.42,107.1 l 58.41,58.51 -154.07,154.08 -58.51,-58.42 c -33.09,19.38 -69,34.5 -107.1,44.43 v 82.61 h -217.88 v -82.61 c -38.09,-9.93 -74.01,-25.05 -107.09,-44.43 l -58.51,58.42 -154.08,-154.08 58.42,-58.51 c -19.38,-33.08 -34.41,-69 -44.43,-107.1 h -82.61 v -217.87 h 82.61 c 10.02,-38.1 25.05,-74.02 44.43,-107.1 l -58.42,-58.51 154.08,-154.08 58.51,58.42 c 33.08,-19.38 69,-34.41 107.09,-44.43 v -82.61 h 217.88 v 82.61 c 38.1,10.02 74.01,25.05 107.1,44.43 l 58.51,-58.42 154.07,154.08 -58.41,58.51 c 19.38,33.08 34.5,69 44.42,107.1 h 82.62"
         style="fill:#a9caed;fill-opacity:1;fill-rule:nonzero;stroke:none"
         id="path18" /><path
         d="m 3613.17,1747.65 c -51.72,-19.84 -109.73,6 -129.57,57.71 -19.82,51.66 6.02,109.68 57.74,129.52 51.66,19.81 109.67,-6.03 129.49,-57.69 19.84,-51.71 -6,-109.73 -57.66,-129.54 z m 231.38,134.18 -41.45,108.05 -40.98,-15.72 c -12.16,17.01 -26.5,31.94 -42.4,44.66 l 17.84,40.13 -105.73,47.1 -17.9,-40.1 c -20.1,3.31 -40.79,3.98 -61.57,1.65 l -15.71,40.97 -108.06,-41.45 15.72,-40.97 c -17,-12.17 -31.94,-26.5 -44.66,-42.41 l -40.13,17.84 -47.09,-105.72 40.1,-17.91 c -3.32,-20.09 -3.94,-40.76 -1.66,-61.56 l -40.97,-15.72 41.45,-108.05 40.97,15.72 c 12.22,-16.99 26.51,-31.94 42.41,-44.66 l -17.84,-40.13 105.73,-47.1 17.9,40.1 c 20.09,-3.31 40.77,-3.93 61.56,-1.65 l 15.72,-40.97 108.05,41.45 -15.71,40.97 c 16.98,12.22 31.94,26.5 44.66,42.41 l 40.13,-17.84 47.09,105.72 -40.1,17.91 c 3.32,20.09 3.98,40.78 1.66,61.56 z"
         style="fill:none;stroke:#a9caed;stroke-width:10;stroke-linecap:butt;stroke-linejoin:miter;stroke-miterlimit:10;stroke-dasharray:none;stroke-opacity:1"
         id="path20" /><path
         d="m 3334.19,2170.17 c -34.94,-13.41 -74.14,4.06 -87.55,39 -13.39,34.91 4.07,74.1 39.02,87.51 34.9,13.39 74.1,-4.07 87.49,-38.98 13.41,-34.94 -4.06,-74.14 -38.96,-87.53 z m 156.34,90.67 -28.01,73 -27.68,-10.62 c -8.23,11.49 -17.91,21.58 -28.66,30.18 l 12.06,27.12 -71.44,31.82 -12.1,-27.1 c -13.57,2.24 -27.55,2.69 -41.59,1.12 l -10.62,27.68 -73.01,-28 10.62,-27.69 c -11.49,-8.22 -21.58,-17.91 -30.18,-28.65 l -27.12,12.05 -31.82,-71.44 27.1,-12.09 c -2.24,-13.58 -2.66,-27.55 -1.12,-41.6 l -27.68,-10.62 28,-73.01 27.69,10.62 c 8.25,-11.48 17.91,-21.58 28.65,-30.17 l -12.05,-27.12 71.44,-31.82 12.09,27.09 c 13.58,-2.24 27.55,-2.66 41.6,-1.12 l 10.62,-27.68 73.01,28.01 -10.62,27.68 c 11.48,8.26 21.58,17.91 30.18,28.66 l 27.11,-12.06 31.82,71.44 -27.09,12.1 c 2.24,13.57 2.69,27.55 1.12,41.6 z"
         style="fill:none;stroke:#a9caed;stroke-width:10;stroke-linecap:butt;stroke-linejoin:miter;stroke-miterlimit:10;stroke-dasharray:none;stroke-opacity:1"
         id="path22" /><path
         d="m 3465.11,3539.12 c 0,-109.48 -51.17,-207.07 -130.78,-270.13 -58.61,-46.52 -132.74,-74.12 -213.48,-74.12 -80.53,0 -154.65,27.6 -213.48,74.12 -79.7,63.06 -130.77,160.65 -130.77,270.13 0,190.12 154.14,344.26 344.25,344.26 190.12,0 344.26,-154.14 344.26,-344.26"
         style="fill:#4497d8;fill-opacity:1;fill-rule:nonzero;stroke:none"
         id="path24" /><path
         d="m 3465.11,3539.12 c 0,-109.48 -51.17,-207.07 -130.78,-270.13 -58.61,-46.52 -132.74,-74.12 -213.48,-74.12 -80.53,0 -154.65,27.6 -213.48,74.12 -79.7,63.06 -130.77,160.65 -130.77,270.13 0,190.12 154.14,344.26 344.25,344.26 190.12,0 344.26,-154.14 344.26,-344.26 z"
         style="fill:none;stroke:#4497d8;stroke-width:10;stroke-linecap:butt;stroke-linejoin:miter;stroke-miterlimit:10;stroke-dasharray:none;stroke-opacity:1"
         id="path26" /><path
         d="m 3120.85,3765.11 c 62.24,0 112.69,-50.45 112.69,-112.68 0,-62.23 -50.45,-112.69 -112.69,-112.69 -62.23,0 -112.68,50.46 -112.68,112.69 0,62.23 50.45,112.68 112.68,112.68"
         style="fill:#ffffff;fill-opacity:1;fill-rule:nonzero;stroke:none"
         id="path28" /><path
         d="m 3334.33,3312.41 c -58.61,-46.52 -132.74,-74.12 -213.48,-74.12 -80.53,0 -154.65,27.6 -213.48,74.12 22.02,96.87 42.28,180.5 63.37,201.7 29.78,29.77 108.86,47.14 150.01,47.14 41.14,0 123.95,-21.09 139.25,-36.39 31.22,-31.12 58.1,-117.03 74.33,-212.45"
         style="fill:#ffffff;fill-opacity:1;fill-rule:nonzero;stroke:none"
         id="path30" /><path
         d="m 2626.1,2690.48 v 170 c 0,46.4 37.6,84 84,84 h 535.6 c 46.4,0 84,-37.6 84,-84 v -170 c 0,-46.4 -37.6,-84 -84,-84 h -535.5 c -46.4,-0.1 -84.1,37.6 -84.1,84"
         style="fill:#4497d8;fill-opacity:1;fill-rule:nonzero;stroke:none"
         id="path32" /><path
         d="m 2852.3,2699.38 -259.2,-252.5 420.1,212.3"
         style="fill:#4497d8;fill-opacity:1;fill-rule:nonzero;stroke:none"
         id="path34" /><path
         d="m 2691.1,2864.68 v 0.9 c 0,6.9 5.6,12.5 12.5,12.5 h 264.8 c 6.9,0 12.5,-5.6 12.5,-12.5 v -0.9 c 0,-6.9 -5.6,-12.5 -12.5,-12.5 h -264.8 c -6.9,0 -12.5,5.6 -12.5,12.5"
         style="fill:#ffffff;fill-opacity:1;fill-rule:nonzero;stroke:none"
         id="path36" /><path
         d="m 2992.8,2864.68 v 0.9 c 0,6.9 5.6,12.5 12.5,12.5 h 231.1 c 6.9,0 12.5,-5.6 12.5,-12.5 v -0.9 c 0,-6.9 -5.6,-12.5 -12.5,-12.5 h -231.1 c -6.9,0 -12.5,5.6 -12.5,12.5"
         style="fill:#ffffff;fill-opacity:1;fill-rule:nonzero;stroke:none"
         id="path38" /><path
         d="m 2891.9,2807.78 v 0.9 c 0,6.9 5.6,12.5 12.5,12.5 h 332 c 6.9,0 12.5,-5.6 12.5,-12.5 v -0.9 c 0,-6.9 -5.6,-12.5 -12.5,-12.5 h -332 c -6.9,0 -12.5,5.6 -12.5,12.5"
         style="fill:#ffffff;fill-opacity:1;fill-rule:nonzero;stroke:none"
         id="path40" /><path
         d="m 2691.1,2807.78 v 0.9 c 0,6.9 5.6,12.5 12.5,12.5 h 148.3 c 6.9,0 12.5,-5.6 12.5,-12.5 v -0.9 c 0,-6.9 -5.6,-12.5 -12.5,-12.5 h -148.3 c -6.9,0 -12.5,5.6 -12.5,12.5"
         style="fill:#ffffff;fill-opacity:1;fill-rule:nonzero;stroke:none"
         id="path42" /><path
         d="m 2938,2750.88 v 0.9 c 0,6.9 5.6,12.5 12.5,12.5 h 285.9 c 6.9,0 12.5,-5.6 12.5,-12.5 v -0.9 c 0,-6.9 -5.6,-12.5 -12.5,-12.5 h -285.9 c -6.9,0 -12.5,5.6 -12.5,12.5"
         style="fill:#ffffff;fill-opacity:1;fill-rule:nonzero;stroke:none"
         id="path44" /><path
         d="m 2691.1,2750.88 v 0.9 c 0,6.9 5.6,12.5 12.5,12.5 h 197.5 c 6.9,0 12.5,-5.6 12.5,-12.5 v -0.9 c 0,-6.9 -5.6,-12.5 -12.5,-12.5 h -197.5 c -6.9,0 -12.5,5.6 -12.5,12.5"
         style="fill:#ffffff;fill-opacity:1;fill-rule:nonzero;stroke:none"
         id="path46" /><path
         d="m 2691.1,2693.98 v 0.9 c 0,6.9 5.6,12.5 12.5,12.5 h 73.3 c 6.9,0 12.5,-5.6 12.5,-12.5 v -0.9 c 0,-6.9 -5.6,-12.5 -12.5,-12.5 h -73.3 c -6.9,0 -12.5,5.6 -12.5,12.5"
         style="fill:#ffffff;fill-opacity:1;fill-rule:nonzero;stroke:none"
         id="path48" /><path
         d="m 2815.3,2693.98 v 0.9 c 0,6.9 5.6,12.5 12.5,12.5 h 408.6 c 6.9,0 12.5,-5.6 12.5,-12.5 v -0.9 c 0,-6.9 -5.6,-12.5 -12.5,-12.5 h -408.6 c -6.9,0 -12.5,5.6 -12.5,12.5"
         style="fill:#ffffff;fill-opacity:1;fill-rule:nonzero;stroke:none"
         id="path50" /><path
         d="m 886.16,3380.5 c 171.02,64.9 362.27,-21.12 427.17,-192.13 64.9,-171.02 -21.12,-362.26 -192.13,-427.17 -171.016,-64.9 -362.266,21.12 -427.169,192.13 -64.906,171.02 21.114,362.27 192.129,427.17"
         style="fill:#4497d8;fill-opacity:1;fill-rule:nonzero;stroke:none"
         id="path52" /><path
         d="m 997.984,2873.56 c -19.183,-39.96 -67.132,-56.8 -107.089,-37.62 -39.957,19.19 -56.797,67.13 -37.614,107.09 19.184,39.96 67.129,56.8 107.09,37.62 39.959,-19.19 56.799,-67.13 37.613,-107.09"
         style="fill:#ffffff;fill-opacity:1;fill-rule:nonzero;stroke:none"
         id="path54" /><path
         d="m 883.488,2879.49 -3.875,50.9 42.145,28.8 46.019,-22.09 3.875,-50.9 -42.144,-28.81 -46.02,22.1"
         style="fill:#4497d8;fill-opacity:1;fill-rule:nonzero;stroke:none"
         id="path56" /><path
         d="m 1154.08,3198.67 c -19.19,-39.96 -67.13,-56.8 -107.09,-37.61 -39.96,19.18 -56.799,67.13 -37.62,107.08 19.19,39.96 67.14,56.8 107.09,37.62 39.96,-19.19 56.8,-67.13 37.62,-107.09"
         style="fill:#ffffff;fill-opacity:1;fill-rule:nonzero;stroke:none"
         id="path58" /><path
         d="m 1041.92,3209.46 2.76,64.72 48.77,42.63 46.02,-22.1 -2.76,-64.72 -48.78,-42.62 -46.01,22.09"
         style="fill:#4497d8;fill-opacity:1;fill-rule:nonzero;stroke:none"
         id="path60" /><path
         d="m 981.219,2945.39 -61.399,29.48 45.371,104.67 c 2.879,6.64 6.016,13.16 9.399,19.56 l 53.3,100.86 61.4,-29.48 -43.76,-103.07 c -3.38,-7.98 -7.13,-15.79 -11.24,-23.41 l -53.071,-98.61"
         style="fill:#ffffff;fill-opacity:1;fill-rule:nonzero;stroke:none"
         id="path62" /><path
         d="m 1233.74,2892.66 c 11.84,5.48 201.86,-3.18 201.86,-3.18 l -136.97,125.76 -64.89,-122.58"
         style="fill:#4497d8;fill-opacity:1;fill-rule:nonzero;stroke:none"
         id="path64" /><path
         d="m 1771.68,4085.64 c 179.78,1.07 326.39,-143.79 327.47,-323.57 1.08,-179.78 -143.79,-326.4 -323.57,-327.47 -179.78,-1.08 -326.39,143.78 -327.47,323.56 -1.08,179.78 143.79,326.4 323.57,327.48"
         style="fill:#4497d8;fill-opacity:1;fill-rule:nonzero;stroke:none"
         id="path66" /><path
         d="m 1784.5,3764.15 h -21.74 v 273.38 h 21.74 v -273.38"
         style="fill:#ffffff;fill-opacity:1;fill-rule:nonzero;stroke:none"
         id="path68" /><path
         d="m 1761.25,3764.15 12.38,-17.88 -227.84,-157.71 -12.38,17.88 227.84,157.71"
         style="fill:#ffffff;fill-opacity:1;fill-rule:nonzero;stroke:none"
         id="path70" /><path
         d="m 1803.59,3760.12 c 0,-16.55 -13.41,-29.97 -29.96,-29.97 -16.55,0 -29.96,13.42 -29.96,29.97 0,16.54 13.41,29.96 29.96,29.96 16.55,0 29.96,-13.42 29.96,-29.96"
         style="fill:#ffffff;fill-opacity:1;fill-rule:nonzero;stroke:none"
         id="path72" /><path
         d="m 2657.4,1555.88 c -19.3,297.6 110.9,605.6 330.2,781.8 6.8,-299.1 -122.1,-601.8 -330.2,-781.8"
         style="fill:#a9caed;fill-opacity:1;fill-rule:nonzero;stroke:none"
         id="path74" /><path
         d="m 2951.8,2257.58 c -92.4,-172.2 -172.3,-352.4 -238.7,-538.3 -80.7,-225.7 -144.2,-465.5 -282.4,-654.7"
         style="fill:none;stroke:#6e86c5;stroke-width:10;stroke-linecap:round;stroke-linejoin:miter;stroke-miterlimit:10;stroke-dasharray:none;stroke-opacity:1"
         id="path76" /><path
         d="m 2588.2,1368.68 c 111,248.3 331.3,435.9 574.2,489 -103.4,-266.1 -336,-469.1 -574.2,-489"
         style="fill:#a9caed;fill-opacity:1;fill-rule:nonzero;stroke:none"
         id="path78" /><path
         d="m 3102.8,1802.98 c -165.9,-146 -334.6,-287.9 -506.1,-425.6"
         style="fill:none;stroke:#6e86c5;stroke-width:10;stroke-linecap:round;stroke-linejoin:miter;stroke-miterlimit:10;stroke-dasharray:none;stroke-opacity:1"
         id="path80" /><path
         d="m 2522.7,1152.38 c 148.3,221.5 421.9,337.1 648.3,273.9 -166.5,-218.7 -440.7,-334.6 -648.3,-273.9"
         style="fill:#a9caed;fill-opacity:1;fill-rule:nonzero;stroke:none"
         id="path82" /><path
         d="m 3116.7,1410.28 c -194.4,-121.6 -404.1,-211.4 -620.3,-265.4"
         style="fill:none;stroke:#6e86c5;stroke-width:10;stroke-linecap:round;stroke-linejoin:miter;stroke-miterlimit:10;stroke-dasharray:none;stroke-opacity:1"
         id="path84" /><path
         d="m 2602.8,1443.98 c 47.4,249.4 -23.7,527.4 -182,711.3 -64.9,-245.1 -3,-532.3 182,-711.3"
         style="fill:#a9caed;fill-opacity:1;fill-rule:nonzero;stroke:none"
         id="path86" /><path
         d="m 2437.1,2091.68 c 31.2,-232 86.7,-449.3 172.7,-661.7"
         style="fill:none;stroke:#6e86c5;stroke-width:10;stroke-linecap:round;stroke-linejoin:miter;stroke-miterlimit:10;stroke-dasharray:none;stroke-opacity:1"
         id="path88" /><path
         d="m 2521.4,1231.58 c -20.2,256.4 -151.6,497.2 -343.8,630.1 11.1,-135.8 47.2,-266.7 104.5,-385.7 65.9,-136.7 162.7,-223.4 239.3,-244.4"
         style="fill:#a9caed;fill-opacity:1;fill-rule:nonzero;stroke:none"
         id="path90" /><path
         d="m 2206.1,1809.78 c 75.6,-213.8 184.4,-412 320.1,-583.6"
         style="fill:none;stroke:#6e86c5;stroke-width:10;stroke-linecap:round;stroke-linejoin:miter;stroke-miterlimit:10;stroke-dasharray:none;stroke-opacity:1"
         id="path92" /><path
         d="m 4005.7,1293.08 c 104.9,272.9 346.2,494.3 612.3,561.7 -116.6,-269.2 -354.6,-486.2 -612.3,-561.7"
         style="fill:#a9caed;fill-opacity:1;fill-rule:nonzero;stroke:none"
         id="path94" /><path
         d="m 4553.5,1798.08 c -152.2,-115.7 -296.8,-243.6 -431.6,-382.1 -163.8,-168.2 -318.3,-355.8 -518,-468"
         style="fill:none;stroke:#6e86c5;stroke-width:10;stroke-linecap:round;stroke-linejoin:miter;stroke-miterlimit:10;stroke-dasharray:none;stroke-opacity:1"
         id="path96" /><path
         d="m 3867.8,1154.58 c 199.9,175.9 471.5,253.1 707.9,201.3 -200.4,-194.9 -489.2,-280.8 -707.9,-201.3"
         style="fill:#a9caed;fill-opacity:1;fill-rule:nonzero;stroke:none"
         id="path98" /><path
         d="m 4500.6,1331.38 c -206.5,-62.4 -413.8,-119.9 -621.8,-172.6"
         style="fill:none;stroke:#6e86c5;stroke-width:10;stroke-linecap:round;stroke-linejoin:miter;stroke-miterlimit:10;stroke-dasharray:none;stroke-opacity:1"
         id="path100" /><path
         d="m 3721.2,988.582 c 221.9,136.798 511.1,128.098 685.3,-20.602 -236.8,-126.8 -526.7,-118.101 -685.3,20.602"
         style="fill:#a9caed;fill-opacity:1;fill-rule:nonzero;stroke:none"
         id="path102" /><path
         d="m 4352,975.98 c -221.6,-29 -443.9,-23.398 -657,16.7"
         style="fill:none;stroke:#6e86c5;stroke-width:10;stroke-linecap:round;stroke-linejoin:miter;stroke-miterlimit:10;stroke-dasharray:none;stroke-opacity:1"
         id="path104" /><path
         d="m 3911.6,1215.68 c 144.1,202.8 195.2,479.5 130.7,707.9 -157.9,-191.8 -220.9,-472.9 -130.7,-707.9"
         style="fill:#a9caed;fill-opacity:1;fill-rule:nonzero;stroke:none"
         id="path106" /><path
         d="m 4030.6,1860.38 c -67.6,-219.4 -107.5,-435.6 -118.5,-660"
         style="fill:none;stroke:#6e86c5;stroke-width:10;stroke-linecap:round;stroke-linejoin:miter;stroke-miterlimit:10;stroke-dasharray:none;stroke-opacity:1"
         id="path108" /><path
         d="m 3752.6,1059.68 c 87.2,236.6 69.8,504.8 -45.6,701.6 -45.8,-125.5 -67.6,-256.8 -65.7,-386.2 2.1,-148.6 52.1,-265.4 111.3,-315.4"
         style="fill:#a9caed;fill-opacity:1;fill-rule:nonzero;stroke:none"
         id="path110" /><path
         d="m 3710.8,1703.48 c -20.8,-221.3 -5.9,-442.3 43.7,-650.5"
         style="fill:none;stroke:#6e86c5;stroke-width:10;stroke-linecap:round;stroke-linejoin:miter;stroke-miterlimit:10;stroke-dasharray:none;stroke-opacity:1"
         id="path112" /><path
         d="M 1032.67,1770.22 C 925.73,2097.31 627.301,2361.6 280.133,2436.61 426.086,2153.63 690.824,1928.42 1032.67,1770.22"
         style="fill:#a9caed;fill-opacity:1;fill-rule:nonzero;stroke:none"
         id="path114" /><path
         d="m 1050.78,1719.48 c -234.245,132.47 -527.745,161.67 -782.182,77.94 235.988,-117.88 515.613,-150.72 782.182,-77.94"
         style="fill:#a9caed;fill-opacity:1;fill-rule:nonzero;stroke:none"
         id="path116" /><path
         d="m 1115.57,1648.55 c -253.172,35.08 -518.289,-27.32 -723.894,-170.37 233.14,-84.75 512.855,-29.79 723.894,170.37"
         style="fill:#a9caed;fill-opacity:1;fill-rule:nonzero;stroke:none"
         id="path118" /><path
         d="m 1194.51,1493.6 c -250.709,1.05 -497.213,-118.11 -644.576,-311.57 111.578,-22.36 230.062,-9 332.425,37.36 102.368,46.36 188.131,125.46 312.151,274.21"
         style="fill:#a9caed;fill-opacity:1;fill-rule:nonzero;stroke:none"
         id="path120" /><path
         d="m 1371.26,1234.35 c -247.21,42.38 -510.608,-34.23 -688.865,-200.37 106.394,-40.41 225.527,-46.871 334.385,-18.17 108.86,28.71 206.87,92.46 354.48,218.54"
         style="fill:#a9caed;fill-opacity:1;fill-rule:nonzero;stroke:none"
         id="path122" /><path
         d="m 1104.37,1754.72 c -163.241,220.03 -207.55,516.53 -114.804,768.77 70.824,-119.93 131.924,-246.73 160.454,-381.51 28.52,-134.78 22.98,-278.48 -45.65,-387.26"
         style="fill:#a9caed;fill-opacity:1;fill-rule:nonzero;stroke:none"
         id="path124" /><path
         d="m 1204.1,1542.44 c -38.66,233.76 41.27,481.53 210.1,650.83 19.43,-241.85 -54.57,-488.23 -210.1,-650.83"
         style="fill:#a9caed;fill-opacity:1;fill-rule:nonzero;stroke:none"
         id="path126" /><path
         d="M 356.129,2377.99 C 852.973,2060.1 1241.53,1586.27 1446.64,1047.93"
         style="fill:none;stroke:#6e86c5;stroke-width:10;stroke-linecap:round;stroke-linejoin:miter;stroke-miterlimit:10;stroke-dasharray:none;stroke-opacity:1"
         id="path128" /><path
         d="m 1005,2407.5 c 60.43,-245.39 97.2,-495.92 109.64,-747.19"
         style="fill:none;stroke:#6e86c5;stroke-width:10;stroke-linecap:round;stroke-linejoin:miter;stroke-miterlimit:10;stroke-dasharray:none;stroke-opacity:1"
         id="path130" /><path
         d="m 1377.08,2098.35 c -19.79,-197.98 -80.98,-391.48 -178.72,-565.77"
         style="fill:none;stroke:#6e86c5;stroke-width:10;stroke-linecap:round;stroke-linejoin:miter;stroke-miterlimit:10;stroke-dasharray:none;stroke-opacity:1"
         id="path132" /><path
         d="m 373.184,1791.71 c 227.781,-43.32 459.296,-66.8 690.856,-70.24"
         style="fill:none;stroke:#6e86c5;stroke-width:10;stroke-linecap:round;stroke-linejoin:miter;stroke-miterlimit:10;stroke-dasharray:none;stroke-opacity:1"
         id="path134" /><path
         d="m 510.441,1497.63 c 210.032,15.25 416.661,66.14 607.659,149.71"
         style="fill:none;stroke:#6e86c5;stroke-width:10;stroke-linecap:round;stroke-linejoin:miter;stroke-miterlimit:10;stroke-dasharray:none;stroke-opacity:1"
         id="path136" /><path
         d="m 636.273,1217.34 c 193.801,96.67 387.617,193.45 581.427,290.13"
         style="fill:none;stroke:#6e86c5;stroke-width:10;stroke-linecap:round;stroke-linejoin:miter;stroke-miterlimit:10;stroke-dasharray:none;stroke-opacity:1"
         id="path138" /><path
         d="m 762.32,1046.63 c 253.03,48.82 328.21,107.08 609.05,187.7"
         style="fill:none;stroke:#6e86c5;stroke-width:10;stroke-linecap:round;stroke-linejoin:miter;stroke-miterlimit:10;stroke-dasharray:none;stroke-opacity:1"
         id="path140" /><path
         d="m 2364.2,1510.08 c 0,0 21.9,-200.7 46.4,-216.8 43.8,-28.9 550.8,-95.7 550.8,-95.7 l -16.6,-131.9 c 0,0 -694.4,-62.4 -723.9,-27.7 -51.2,60.2 -141.2,350.6 -141.2,350.6 l 284.5,121.5"
         style="fill:#e1534d;fill-opacity:1;fill-rule:nonzero;stroke:none"
         id="path142" /><path
         d="m 2029.4,2026.78 56.1,134.7 c 0,0 152.2,-71.5 202.4,-159.8 53.7,-94.4 119.4,-596.3 119.4,-596.3 0,0 -268.7,-61.9 -318.1,-35.6 -49.4,26.3 -59.8,657 -59.8,657"
         style="fill:#f0a71c;fill-opacity:1;fill-rule:nonzero;stroke:none"
         id="path144" /><path
         d="m 1602.1,2651.98 c -39.3,14.4 -80.9,27 -123,23.8 -42.1,-3.2 -85.1,-25.5 -99.4,-62.5 -10.2,-26.2 -5.5,-57.1 -21.6,-80.7 -15.4,-22.6 -46,-32 -74.6,-33.9 -28.7,-2 -57.6,1.8 -86.1,-1.9 -88,-11.7 -150.8,-107.3 -121.9,-185.6 11.5,-31.2 35.1,-61 29.7,-93.5 -5.7,-34.8 -42.2,-57.7 -57.2,-90 -19.9,-43 3.9,-95.1 43.2,-124.4 39.3,-29.2 90.4,-40.3 140,-47.7 68.3,-10.2 138.8,-15 206.3,-0.6 67.5,14.4 132,50 166.9,105.6 15.5,24.6 24.9,52.4 42.9,75.5 37.2,47.7 103.1,66.2 155,100 56.7,37.1 98.3,109.3 64.9,165.8 -32.2,54.3 -116,66.4 -149.6,119.9 -13.9,22.1 -17.2,48.4 -26.2,72.5 -9.2,24.2 -31.2,36.4 -89.3,57.7"
         style="fill:#16233a;fill-opacity:1;fill-rule:nonzero;stroke:none"
         id="path146" /><path
         d="m 1831.1,1985.88 c 9.9,-11.4 21.6,-23.9 37.8,-25 17.1,-1.2 31.4,10.9 42.4,22.6 56.8,60.1 94.3,133.9 109.5,210 -14.1,8 -27.7,15.7 -40,22.9 -11.4,6.8 -20,16.3 -24.9,27.4 -3.4,8.2 -4.6,16.8 -3.7,25.8 8,75.2 15.1,117.1 41.5,193.4 -125.4,28.3 -243.7,61.9 -311.7,118.7 -8.3,-35 -18.1,-103.5 -39,-171.4 -22.3,-71.9 -57.1,-143 -116.1,-173.6 115.8,-68.4 219.1,-153.4 304.2,-250.8"
         style="fill:#f7906c;fill-opacity:1;fill-rule:nonzero;stroke:none"
         id="path148" /><path
         d="m 1952.2,2269.48 c -0.9,-9 0.3,-17.7 3.7,-25.8 -74.2,-90 -240.1,27.6 -312.9,166.5 20.9,67.9 30.7,136.4 39,171.4 67.9,-56.8 186.3,-90.5 311.7,-118.7 -26.4,-76.3 -33.5,-118.1 -41.5,-193.4"
         style="fill:#e1534d;fill-opacity:1;fill-rule:nonzero;stroke:none"
         id="path150" /><path
         d="m 2158.8,1181.48 c -16.4,-108.6 100.8,-225.5 103.7,-283.5 -248.9,0 -770.3,-15.199 -1035.8,20.899 -12.1,67 119,217.701 119,366.501 0,19.7 -0.8,41.3 -2.4,64.5 -4.2,66.4 -14,145.4 -24.9,226.4 -29.6,217.3 -69,449.7 -39.9,497.9 57,93.9 190.3,157.7 256.4,185.1 22.7,9.4 37.5,14.5 38.6,15.1 82.9,-141.4 251.6,-262 315.3,-256.6 17.7,1.4 70.2,19.7 104.9,194.4 13.5,-7.7 27,-14.8 40.4,-21.7 65.9,-34.3 127.7,-62.6 145.5,-106.7 47,-116.1 93.1,-408.8 82.9,-512.91 -10.3,-105 -52.5,-185.19 -82.1,-290.59 -6.9,-24.7 -13.2,-50.9 -18.3,-79.11 -1.3,-6.29 -2.3,-12.89 -3.3,-19.69"
         style="fill:#fbc326;fill-opacity:1;fill-rule:nonzero;stroke:none"
         id="path152" /><path
         d="m 2262.5,897.98 c -248.9,0 -770.3,-15.199 -1035.8,20.899 -12.1,67 119,217.701 119,366.501 0,19.7 -0.8,41.3 -2.4,64.5 -4.2,66.4 -14,145.4 -24.9,226.4 47.1,-49.7 115.8,160.3 146.2,98.8 164.5,-332 294.2,-419.3 519.6,-419.3 67.2,0 129.2,9.3 196.2,24.5 -6.9,-24.7 -13.2,-50.9 -18.3,-79.1 -1.2,-6.4 -2.3,-13 -3.3,-19.8 -16.4,-108.4 100.8,-225.298 103.7,-283.4"
         style="fill:#fab31f;fill-opacity:1;fill-rule:nonzero;stroke:none"
         id="path154" /><path
         d="m 2034.1,2190.48 c -10.7,-77.7 -42.4,-182.4 -134.6,-210 -124.6,-37.3 -304.9,195.5 -364.6,278.8 22.7,9.4 37.5,14.5 38.6,15.1 82.9,-141.4 251.6,-262 315.3,-256.6 17.7,1.4 70.2,19.7 104.9,194.4 13.5,-7.6 27,-14.7 40.4,-21.7"
         style="fill:#f8e354;fill-opacity:1;fill-rule:nonzero;stroke:none"
         id="path156" /><path
         d="m 2085.3,1014.88 -0.9,-86.7 1550,-9.2 3.2,98.3 -1552.3,-2.4"
         style="fill:#345a73;fill-opacity:1;fill-rule:nonzero;stroke:none"
         id="path158" /><path
         d="m 4306.2,1788.38 -34.5,35 -1129,7.4 -566.4,-819.1 29.6,-23.801 1700.3,800.501"
         style="fill:#345a73;fill-opacity:1;fill-rule:nonzero;stroke:none"
         id="path160" /><path
         d="m 3164.5,1800.48 -558.6,-812.601 1067,-5.297 633.3,805.798 -1141.7,12.1"
         style="fill:#1a2c4c;fill-opacity:1;fill-rule:nonzero;stroke:none"
         id="path162" /><path
         d="m 3434.1,1405.98 c 68.6,0 124.2,-27.81 124.2,-62.1 0,-34.3 -55.6,-62.1 -124.2,-62.1 -68.59,0 -124.2,27.8 -124.2,62.1 0,34.29 55.61,62.1 124.2,62.1"
         style="fill:#40718f;fill-opacity:1;fill-rule:nonzero;stroke:none"
         id="path164" /><path
         d="m 2108.22,2602.65 c 17.6,94.42 82.35,161.56 144.62,149.95 62.28,-11.6 98.5,-97.55 80.91,-191.97 -17.6,-94.42 -82.35,-161.56 -144.62,-149.95 -62.28,11.6 -98.5,97.55 -80.91,191.97"
         style="fill:#73c9f1;fill-opacity:1;fill-rule:nonzero;stroke:none"
         id="path166" /><path
         d="m 2333.9,2856.98 c -11.6,-82.2 -48.3,-172.8 -101.8,-272.9 -18.8,82 -30.8,181.9 -47.4,281.8 -16.9,100.1 -38.4,200.2 -75.7,282 -8.4,18.1 -17.5,35.4 -27.4,51.4 22.1,2.1 44.5,0 65.8,-5.9 33.3,-8.9 64.5,-26.1 90,-49.1 42.4,-37.7 70.8,-89.1 87.7,-143.3 13.9,-45 16.4,-92.8 8.8,-144"
         style="fill:#1a2c4c;fill-opacity:1;fill-rule:nonzero;stroke:none"
         id="path168" /><path
         d="m 2271.1,2771.98 c -0.6,-16.2 -1.7,-32.7 -3.2,-49.1 -22.8,-266 -134.5,-448.5 -305.4,-448.5 -241.3,0 -397.7,270.6 -397.7,535.7 0,261.5 160.2,450.8 347.7,428.9 108.1,-12.4 187.1,-48.3 243.2,-100.9 37.1,-35 63.9,-77.3 82.2,-125.4 20.9,-53.9 31,-114.9 33.1,-180.6 0,-0.2 0.2,-0.4 0.2,-0.6 0.8,-19.4 0.6,-39.2 -0.1,-59.5"
         style="fill:#f7906c;fill-opacity:1;fill-rule:nonzero;stroke:none"
         id="path170" /><path
         d="m 2271.1,2771.98 c -7.2,25.7 -17.9,50.8 -32.5,73.3 -142.3,-74.4 -311.9,-103.1 -472.7,-75.9 -30.6,-25.5 -60.5,-50.6 -90.6,-75.7 0.6,121 2.3,202.9 49.5,261.5 44.3,55 118.2,75.7 188.2,84.7 78.8,10.3 158.9,9.9 237.5,-1.5 30.1,-4.2 61.3,-10.7 87.5,-25.9 20.9,-53.9 31,-114.9 33.1,-180.6 0,-0.2 0.2,-0.4 0.2,-0.6 0.7,-19.2 0.5,-39 -0.2,-59.3"
         style="fill:#e1534d;fill-opacity:1;fill-rule:nonzero;stroke:none"
         id="path172" /><path
         d="m 2305.9,2935.78 c -33.1,-28 -74.6,-51.2 -121.2,-70 -132.6,-53.5 -304.9,-71.2 -439.2,-64.7 -66,-145 -92.7,-197 -109.6,-323.5 -64.5,60.5 -117,171.3 -132.6,258.4 -15.4,86.8 -13.9,177.9 10.3,263.2 38.1,134.5 134.2,206.5 200.8,241.5 16.6,9.1 31.6,15.4 43.2,20 85.1,32.9 181,29.9 268.3,3.2 47.6,-14.8 87.7,-39.8 121.4,-70.6 68.1,-61.5 110.2,-144.8 137.4,-207.2 8.6,-19.1 15.5,-36.4 21.2,-50.3"
         style="fill:#1a2c4c;fill-opacity:1;fill-rule:nonzero;stroke:none"
         id="path174" /><path
         d="m 2333.9,2856.98 c -5.5,29.1 -13.7,57.3 -25.3,84.5 -6.5,15.4 -14.5,30.3 -23.8,44.7 -30.3,47.6 -74.4,86.8 -127.7,104.1 -15.2,21.3 -31.2,40.5 -48,57.5 -60.5,61.5 -131.5,96.7 -206.7,109 -62.6,10.1 -127.7,4.4 -187.8,-16 16.6,9.1 31.6,15.4 43.2,20 85.1,32.9 181,29.9 268.3,3.2 47.6,-14.8 87.7,-39.8 121.4,-70.6 33.3,-8.9 64.5,-26.1 90,-49.1 42.4,-37.7 70.8,-89.1 87.7,-143.3 13.8,-45 16.3,-92.8 8.7,-144"
         style="fill:#2a5070;fill-opacity:1;fill-rule:nonzero;stroke:none"
         id="path176" /><path
         d="m 1822.4,2693.88 c 44.6,25.5 90.9,37 155.8,13.3"
         style="fill:none;stroke:#1a2c4c;stroke-width:20;stroke-linecap:round;stroke-linejoin:miter;stroke-miterlimit:10;stroke-dasharray:none;stroke-opacity:1"
         id="path178" /><path
         d="m 2127.8,2695.68 c 38.2,28.5 94.8,31.4 124.3,0"
         style="fill:none;stroke:#1a2c4c;stroke-width:20;stroke-linecap:round;stroke-linejoin:miter;stroke-miterlimit:10;stroke-dasharray:none;stroke-opacity:1"
         id="path180" /><path
         d="m 2081.7,2550.28 c 3.9,-20.2 1.8,-64.9 -7.8,-85"
         style="fill:none;stroke:#cd3249;stroke-width:20;stroke-linecap:round;stroke-linejoin:miter;stroke-miterlimit:10;stroke-dasharray:none;stroke-opacity:1"
         id="path182" /><path
         d="m 1931,2594.68 c 10.16,0 18.4,-12.99 18.4,-29 0,-16.02 -8.24,-29 -18.4,-29 -10.16,0 -18.4,12.98 -18.4,29 0,16.01 8.24,29 18.4,29"
         style="fill:#25293b;fill-opacity:1;fill-rule:nonzero;stroke:none"
         id="path184" /><path
         d="m 2171.5,2608.18 c 10.16,0 18.4,-12.99 18.4,-29 0,-16.02 -8.24,-29 -18.4,-29 -10.16,0 -18.4,12.98 -18.4,29 0,16.01 8.24,29 18.4,29"
         style="fill:#25293b;fill-opacity:1;fill-rule:nonzero;stroke:none"
         id="path186" /><path
         d="m 2058.9,2425.78 c 0,0 -3.6,-7 -10.5,-16.5 -10.8,-14.5 -29.2,-34.5 -54.3,-42.3 h -0.1 c -10.6,-3.4 -22.1,-4.6 -34.9,-2.3 -37.6,6.7 -47.5,41.4 -49.3,68.1 -0.4,5.2 -0.4,10 -0.3,14.4 0.2,10.8 1.4,18 1.4,18 59.9,-33 148,-39.4 148,-39.4"
         style="fill:#cd3249;fill-opacity:1;fill-rule:nonzero;stroke:none"
         id="path188" /><path
         d="m 2058.9,2425.78 c 0,0 -3.6,-7 -10.5,-16.5 -30.6,0.4 -93.2,16.1 -138.9,37.9 0.2,10.8 1.4,18 1.4,18 59.9,-33 148,-39.4 148,-39.4"
         style="fill:#ffffff;fill-opacity:1;fill-rule:nonzero;stroke:none"
         id="path190" /><path
         d="m 1994,2367.08 c -10.6,-3.4 -22.1,-4.6 -34.9,-2.3 -37.6,6.7 -47.5,41.4 -49.3,68.1 18.2,-2.2 35.8,-9.2 50.4,-20.3 15.3,-11.7 27,-27.6 33.8,-45.5"
         style="fill:#ea509c;fill-opacity:1;fill-rule:nonzero;stroke:none"
         id="path192" /><path
         d="m 1636.5,2739.78 c 0,0 -2.1,124.7 49.8,248.6 65.1,155.5 197.8,222 326.5,226.5 155.1,5.5 252.2,-98.6 252.2,-98.6 0,0 -50.5,89.1 -150.1,114.7 -65.4,16.8 -164.1,19.5 -243.3,-12.7 -81.6,-33.1 -183.3,-125 -220.1,-222.1 -36.7,-97.1 -54.6,-248.3 -54.6,-248.3 l 39.6,-8.1"
         style="fill:#537ec8;fill-opacity:1;fill-rule:nonzero;stroke:none"
         id="path194" /><path
         d="m 1596.04,2779.51 c 66.41,6.91 128.72,-69.07 139.19,-169.71 10.46,-100.63 -34.9,-187.8 -101.31,-194.71 -66.41,-6.9 -128.73,69.08 -139.19,169.71 -10.46,100.63 34.89,187.81 101.31,194.71"
         style="fill:#73c9f1;fill-opacity:1;fill-rule:nonzero;stroke:none"
         id="path196" /><path
         d="m 1562.31,2720.58 c 42.88,6.44 86.82,-49.48 98.15,-124.9 11.34,-75.43 -14.23,-141.79 -57.1,-148.24 -42.88,-6.44 -86.82,49.48 -98.15,124.91 -11.34,75.42 14.23,141.79 57.1,148.23"
         style="fill:#537ec8;fill-opacity:1;fill-rule:nonzero;stroke:none"
         id="path198" /><path
         d="m 2013.8,2350.88 c 35.57,0 64.4,-17.96 64.4,-40.1 0,-22.15 -28.83,-40.1 -64.4,-40.1 -35.56,0 -64.4,17.95 -64.4,40.1 0,22.14 28.84,40.1 64.4,40.1"
         style="fill:#4d92cf;fill-opacity:1;fill-rule:nonzero;stroke:none"
         id="path200" /><path
         d="m 1690.3,2444.88 c 0,0 94.6,-121.6 259.1,-134.1"
         style="fill:none;stroke:#4d92cf;stroke-width:20;stroke-linecap:round;stroke-linejoin:miter;stroke-miterlimit:10;stroke-dasharray:none;stroke-opacity:1"
         id="path202" /><path
         d="m 2084.4,1246.38 -6.2,-159.9 c 0,0 -578.3,-173.3 -673.8,-118.5 -46.6,26.801 -90.1,174.2 -122.6,318.1 -34,151.2 -55.8,298.4 -55.8,298.4 l 339,66.4 c 0,0 0.2,-206.7 11.7,-326.2 4.1,-44.5 10,-76.9 17.9,-82.2 29.9,-19.7 489.8,3.9 489.8,3.9"
         style="fill:#f7906c;fill-opacity:1;fill-rule:nonzero;stroke:none"
         id="path204" /><path
         d="m 1576.7,1324.88 c -61.6,-20 -180.5,-50.9 -294.9,-38.7 -34,151.2 -55.8,298.4 -55.8,298.4 l 339,66.4 c 0,0.1 0.2,-206.6 11.7,-326.1"
         style="fill:#e1534d;fill-opacity:1;fill-rule:nonzero;stroke:none"
         id="path206" /><path
         d="m 2067.9,1244.78 c 86,18.4 231.6,62.6 292,77.8 42.9,10.8 154.6,-47 184.1,-101.5 12.9,-23.8 25.1,-158.6 -19.6,-144.7 -22.4,7 -18.7,64.8 -25.7,88.4 -5.7,19.2 -23.9,37.8 -51.6,53.8 18.5,-46.1 17.8,-86.3 15.8,-136.1 -0.4,-11 -1.1,-22.5 -6.4,-32 -5.4,-9.5 -17,-16.3 -27,-12.1 -10.2,4.2 -13.7,16.9 -16,28 -7.9,38.4 -15.9,76.8 -19.1,120.2 0.8,-42.7 -0.1,-85.5 -2.8,-128.1 -2,-32.6 -18.2,-50.5 -38.1,-44.8 -8.9,2.5 -12.5,10.7 -16.3,21.5 -6,-20.9 -21,-44 -40.4,-35.2 -11.8,5.3 -19.1,47.9 -17,91.7 -37.2,-23.1 -79.2,-32.9 -127.6,-35.1 -43.4,-2 -87.8,6.1 -113.9,35.6 2.6,46.1 17.8,114.3 29.6,152.6"
         style="fill:#f7906c;fill-opacity:1;fill-rule:nonzero;stroke:none"
         id="path208" /><path
         d="m 2338.1,1041.78 c 2.9,34.6 -0.1,69.7 -8.9,103.1"
         style="fill:none;stroke:#cd3249;stroke-width:10;stroke-linecap:round;stroke-linejoin:miter;stroke-miterlimit:10;stroke-dasharray:none;stroke-opacity:1"
         id="path210" /><path
         d="m 1526.9,1986.28 c -24.6,69.3 -114.7,211.1 -114.7,211.1 0,0 -137.5,-57.2 -186.3,-154.3 -82.6,-164.4 -40.6,-636.4 -40.6,-636.4 111.3,-46.6 334.7,-47.3 429.8,-33.9 0,0 -38.9,475 -88.2,613.5"
         style="fill:#fbc326;fill-opacity:1;fill-rule:nonzero;stroke:none"
         id="path212" /><path
         d="m 1544.4,1957.28 c 37.5,-179.5 57.6,-346.9 64,-510.9"
         style="fill:none;stroke:#f0a71c;stroke-width:10;stroke-linecap:round;stroke-linejoin:miter;stroke-miterlimit:10;stroke-dasharray:none;stroke-opacity:1"
         id="path214" /><path
         d="M 544.602,947.48 H 4487.4 V 848.582 H 544.602 v 98.898"
         style="fill:#1a2c4c;fill-opacity:1;fill-rule:nonzero;stroke:none"
         id="path216" /></g></g></svg>
