<?xml version="1.0" encoding="UTF-8" standalone="no"?>
<svg
   viewBox="0 0 751.43201 529.25897"
   height="529.25897"
   width="751.43201"
   xml:space="preserve"
   id="svg2"
   version="1.1"
   sodipodi:docname="document.svg"
   inkscape:version="1.1.2 (b8e25be833, 2022-02-05)"
   xmlns:inkscape="http://www.inkscape.org/namespaces/inkscape"
   xmlns:sodipodi="http://sodipodi.sourceforge.net/DTD/sodipodi-0.dtd"
   xmlns="http://www.w3.org/2000/svg"
   xmlns:svg="http://www.w3.org/2000/svg"
   xmlns:rdf="http://www.w3.org/1999/02/22-rdf-syntax-ns#"
   xmlns:cc="http://creativecommons.org/ns#"
   xmlns:dc="http://purl.org/dc/elements/1.1/"><sodipodi:namedview
     id="namedview20"
     pagecolor="#ffffff"
     bordercolor="#666666"
     borderopacity="1.0"
     inkscape:pageshadow="2"
     inkscape:pageopacity="0.0"
     inkscape:pagecheckerboard="0"
     showgrid="false"
     inkscape:zoom="0.32"
     inkscape:cx="157.8125"
     inkscape:cy="1114.0625"
     inkscape:window-width="1920"
     inkscape:window-height="1001"
     inkscape:window-x="-9"
     inkscape:window-y="-9"
     inkscape:window-maximized="1"
     inkscape:current-layer="svg2" /><metadata
     id="metadata8"><rdf:RDF><cc:Work
         rdf:about=""><dc:format>image/svg+xml</dc:format><dc:type
           rdf:resource="http://purl.org/dc/dcmitype/StillImage" /></cc:Work></rdf:RDF></metadata><defs
     id="defs6" /><g
     id="g944"
     transform="translate(-372.28398,-483.37053)"><g
       transform="matrix(0.13333333,0,0,-0.13333333,0,1496)"
       id="g12"><path
         id="path16"
         style="fill:#616e7d;fill-opacity:1;fill-rule:nonzero;stroke:none"
         d="M 8087.31,6597.7 V 4030.02 H 3132.62 V 6597.7 Z m -5042.03,407.72 c -139.98,0 -253.15,-113.29 -253.15,-253.18 V 3878.48 c 0,-139.71 113.17,-253.2 253.15,-253.2 h 5129.31 c 139.8,0 253.28,113.49 253.28,253.2 v 2873.76 c 0,139.89 -113.48,253.18 -253.28,253.18 H 6128.63 V 6748.76 H 5091.31 v 256.66 H 3045.28" /><path
         id="path18"
         style="fill:#ffffff;fill-opacity:1;fill-rule:nonzero;stroke:none"
         d="m 3479.09,4529.92 c 0,316.28 256.5,572.77 572.71,572.77 h 705.25 c 316.34,0 572.83,-256.49 572.83,-572.77 V 4252.04 H 3479.09 Z m 925.43,1848.75 c 336.37,0 609.26,-272.7 609.26,-609.26 0,-336.43 -272.89,-609.29 -609.26,-609.29 -336.43,0 -609.32,272.86 -609.32,609.29 0,336.56 272.89,609.26 609.32,609.26 z M 5585.58,4718.9 H 7740.65 V 4572.89 H 5585.58 Z m 0,374.2 H 7740.65 V 4947.06 H 5585.58 Z m 0,374.34 H 7740.65 V 5321.41 H 5585.58 Z m 0,587.39 H 7740.65 V 5687.26 H 5585.58 Z M 3132.62,4030.02 H 8087.31 V 6597.7 H 3132.62 V 4030.02" /><path
         id="path20"
         style="fill:#616e7d;fill-opacity:1;fill-rule:nonzero;stroke:none"
         d="m 3795.2,5769.41 c 0,-336.43 272.89,-609.29 609.32,-609.29 336.37,0 609.26,272.86 609.26,609.29 0,336.56 -272.89,609.26 -609.26,609.26 -336.43,0 -609.32,-272.7 -609.32,-609.26" /><path
         id="path22"
         style="fill:#616e7d;fill-opacity:1;fill-rule:nonzero;stroke:none"
         d="m 4607.8,4326.79 h -453.96 l -131.33,689.84 c 12.96,0.94 25.72,1.88 38.86,1.88 h 638.85 c 13.2,0 26.03,-0.94 38.98,-1.88 z m 149.25,775.9 H 4051.8 c -316.21,0 -572.71,-256.49 -572.71,-572.77 v -277.88 h 1850.79 v 277.88 c 0,316.28 -256.49,572.77 -572.83,572.77" /><path
         id="path24"
         style="fill:#616e7d;fill-opacity:1;fill-rule:nonzero;stroke:none"
         d="m 4309.01,4790.49 v 0 l -70.55,-463.7 z" /><path
         id="path26"
         style="fill:#ffffff;fill-opacity:1;fill-rule:nonzero;stroke:none"
         d="m 4452.63,4790.49 70.63,-463.7 h 84.54 l 131.4,689.84 c -12.95,0.94 -25.78,1.88 -38.98,1.88 h -638.85 c -13.14,0 -25.9,-0.94 -38.86,-1.88 l 131.33,-689.84 h 84.62 l 70.55,463.7 v 0 h 2.49 l -69.23,127.46 h 277.11 0.06 l -69.28,-127.46 h 2.47" /><path
         id="path28"
         style="fill:#aad4c8;fill-opacity:1;fill-rule:nonzero;stroke:none"
         d="m 4238.46,4326.79 h 284.8 l -70.63,463.7 h -2.47 l 69.28,127.46 h -0.06 -277.11 l 69.23,-127.46 h -2.49 l -70.55,-463.7" /><path
         id="path30"
         style="fill:#616e7d;fill-opacity:1;fill-rule:nonzero;stroke:none"
         d="m 5585.58,5687.26 h 2155.07 v 367.57 H 5585.58 v -367.57" /><path
         id="path32"
         style="fill:#82bfab;fill-opacity:1;fill-rule:nonzero;stroke:none"
         d="m 5585.58,5321.41 h 2155.07 v 146.03 H 5585.58 v -146.03" /><path
         id="path34"
         style="fill:#82bfab;fill-opacity:1;fill-rule:nonzero;stroke:none"
         d="M 5585.58,4947.06 H 7740.65 V 5093.1 H 5585.58 v -146.04" /><path
         id="path36"
         style="fill:#82bfab;fill-opacity:1;fill-rule:nonzero;stroke:none"
         d="M 5585.58,4572.89 H 7740.65 V 4718.9 H 5585.58 v -146.01" /><path
         id="path38"
         style="fill:#aad4c8;fill-opacity:1;fill-rule:nonzero;stroke:none"
         d="m 5091.31,7005.42 v -256.66 h 1037.32 v 845.96 H 5091.31 v -589.3" /></g></g></svg>
